<svg width="50" height="50" viewBox="0 0 50 50" fill="none" xmlns="http://www.w3.org/2000/svg">
<path fill-rule="evenodd" clip-rule="evenodd" d="M19.3255 38.7456C21.2068 39.1788 23.2458 39.4259 25.4444 39.4259C38.6224 39.4259 45.7544 30.549 47.7422 25.9107L48.1643 24.9259L47.7422 23.9411C46.8397 21.8353 44.8807 18.8843 41.7874 16.2837L38.2362 19.8349C40.3664 21.5389 41.8241 23.4391 42.6574 24.9273C41.7476 26.5598 40.0978 28.6883 37.6448 30.5166C38.5136 28.6938 39 26.6537 39 24.5C39 22.8732 38.7225 21.3112 38.2123 19.8587L33.9904 24.0807C33.9967 24.2196 34 24.3594 34 24.5C34 29.4706 29.9705 33.5 25 33.5C24.8594 33.5 24.7196 33.4968 24.5806 33.4904L19.3255 38.7456ZM27.9383 15.9906C27.0661 15.6895 26.1331 15.5186 25.1627 15.5014C24.8733 15.5046 24.5874 15.513 24.305 15.5264C19.6592 15.8812 16 19.7633 16 24.5C16 25.5289 16.1726 26.5175 16.4905 27.4384L9.6923 34.2366C6.06857 31.4891 3.75817 28.2279 2.71389 25.9787L2.2251 24.9259L2.71389 23.8731C4.77872 19.4258 11.7516 11.1316 24.0146 10.5341C24.3401 10.5115 24.6687 10.5 25 10.5C25.0583 10.5 25.1166 10.5004 25.1747 10.5011C25.2582 10.5004 25.3419 10.5 25.4259 10.5C28.0165 10.5 30.3745 10.8403 32.5064 11.4225L27.9383 15.9906ZM11.9902 29.6817C10.0415 28.0705 8.65468 26.3255 7.81364 24.9266C8.59125 23.636 9.8363 22.0528 11.5635 20.555C11.1967 21.8063 11 23.1302 11 24.5C11 26.3306 11.3513 28.0791 11.9902 29.6817Z" fill="black"/>
<path d="M44 7L6.5 44.5" stroke="black" stroke-width="5"/>
</svg>
