<svg width="50" height="50" viewBox="0 0 50 50" fill="none" xmlns="http://www.w3.org/2000/svg">
<path fill-rule="evenodd" clip-rule="evenodd" d="M16.0963 36C18.1182 39.5274 20.8464 42.9893 24.3571 46.5C24.5312 46.3259 24.7112 46.1466 24.8964 45.9622C27.2959 43.5728 30.5711 40.3113 33.3065 36H16.0963Z" fill="black"/>
<path d="M7.1687 29V11.02H0.844704V7.3H17.5847V11.02H11.2607V29H7.1687ZM24.4943 29.434C22.8616 29.434 21.415 29.1447 20.1543 28.566C18.8936 27.9873 17.9016 27.1607 17.1783 26.086C16.4756 24.9907 16.1243 23.699 16.1243 22.211V21.653H20.0923V22.087C20.0923 23.2443 20.4953 24.1743 21.3013 24.877C22.1073 25.559 23.1716 25.9 24.4943 25.9C25.8376 25.9 26.871 25.5797 27.5943 24.939C28.3383 24.2983 28.7103 23.4923 28.7103 22.521V22.211C28.7103 21.5497 28.545 21.0123 28.2143 20.599C27.8836 20.1857 27.4393 19.886 26.8813 19.7C26.3233 19.4933 25.693 19.39 24.9903 19.39H20.6503V15.05L27.6563 11.33V10.834H16.6823V7.3H32.0583V12.57L25.5173 16.042V16.538H26.6643C27.6356 16.538 28.576 16.7343 29.4853 17.127C30.4153 17.5197 31.18 18.1293 31.7793 18.956C32.3786 19.762 32.6783 20.816 32.6783 22.118V22.49C32.6783 23.8953 32.3373 25.125 31.6553 26.179C30.9733 27.2123 30.0123 28.0183 28.7723 28.597C27.553 29.155 26.127 29.434 24.4943 29.434ZM38.4567 24.629V19.917H33.8067V16.383H38.4567V11.671H42.1147V16.383H46.7647V19.917H42.1147V24.629H38.4567Z" fill="black"/>
</svg>
