<svg width="50" height="50" viewBox="0 0 50 50" fill="none" xmlns="http://www.w3.org/2000/svg">
<path fill-rule="evenodd" clip-rule="evenodd" d="M16.0963 36C18.1182 39.5274 20.8464 42.9893 24.3571 46.5C24.5312 46.3259 24.7112 46.1466 24.8964 45.9622C27.2959 43.5728 30.5711 40.3113 33.3065 36H16.0963Z" fill="black"/>
<path d="M7.80052 30V10.28H0.864515V6.2H19.2245V10.28H12.2885V30H7.80052ZM25.2388 30V9.396H24.6268L21.4308 16.944H16.8748L21.7368 6.2H29.5908V30H25.2388ZM40.7818 30.476C39.2632 30.476 38.0958 30.2153 37.2798 29.694C36.4638 29.1727 35.8632 28.5947 35.4778 27.96H34.8658V30H30.6498V6.2H34.9338V15.074H35.5458C35.7952 14.666 36.1238 14.2807 36.5318 13.918C36.9625 13.5553 37.5178 13.2607 38.1978 13.034C38.9005 12.7847 39.7618 12.66 40.7818 12.66C42.1418 12.66 43.3998 13 44.5558 13.68C45.7118 14.3373 46.6412 15.312 47.3438 16.604C48.0465 17.896 48.3978 19.46 48.3978 21.296V21.84C48.3978 23.676 48.0465 25.24 47.3438 26.532C46.6412 27.824 45.7118 28.81 44.5558 29.49C43.3998 30.1473 42.1418 30.476 40.7818 30.476ZM39.4898 26.736C40.8045 26.736 41.9038 26.3167 42.7878 25.478C43.6718 24.6167 44.1138 23.37 44.1138 21.738V21.398C44.1138 19.766 43.6718 18.5307 42.7878 17.692C41.9265 16.8307 40.8272 16.4 39.4898 16.4C38.1752 16.4 37.0758 16.8307 36.1918 17.692C35.3078 18.5307 34.8658 19.766 34.8658 21.398V21.738C34.8658 23.37 35.3078 24.6167 36.1918 25.478C37.0758 26.3167 38.1752 26.736 39.4898 26.736Z" fill="black"/>
</svg>
