

<svg width="50" height="50" viewBox="0 0 50 50" fill="none" xmlns="http://www.w3.org/2000/svg">
	<circle cx="25" cy="24.5" r="18.5" stroke="black" stroke-width="5" />
	<path
		d="M22.1178 29.22V28.356C22.1178 27.132 22.3578 26.124 22.8378 25.332C23.3418 24.54 24.1458 23.88 25.2498 23.352L25.8618 23.064C26.9418 22.56 27.7698 22.02 28.3458 21.444C28.9218 20.868 29.2098 20.1 29.2098 19.14C29.2098 18.444 29.0298 17.856 28.6698 17.376C28.3338 16.872 27.8538 16.488 27.2298 16.224C26.6058 15.96 25.8738 15.828 25.0338 15.828C24.1698 15.828 23.3898 15.972 22.6938 16.26C22.0218 16.548 21.4818 16.98 21.0738 17.556C20.6898 18.132 20.4978 18.852 20.4978 19.716V20.508H15.8178V19.788C15.8178 18.132 16.2258 16.704 17.0418 15.504C17.8578 14.304 18.9618 13.392 20.3538 12.768C21.7458 12.12 23.3058 11.796 25.0338 11.796C26.7378 11.796 28.2498 12.108 29.5698 12.732C30.9138 13.356 31.9698 14.22 32.7378 15.324C33.5058 16.428 33.8898 17.7 33.8898 19.14C33.8898 20.58 33.6258 21.768 33.0977 22.704C32.5698 23.616 31.8978 24.36 31.0818 24.936C30.2898 25.488 29.4738 25.968 28.6338 26.376L28.0218 26.664C27.5898 26.856 27.2898 27.096 27.1218 27.384C26.9538 27.648 26.8698 28.044 26.8698 28.572V29.22H22.1178ZM24.6378 38.004C23.6778 38.004 22.8618 37.692 22.1898 37.068C21.5418 36.42 21.2178 35.592 21.2178 34.584C21.2178 33.576 21.5418 32.76 22.1898 32.136C22.8618 31.488 23.6778 31.164 24.6378 31.164C25.6218 31.164 26.4378 31.488 27.0858 32.136C27.7338 32.76 28.0578 33.576 28.0578 34.584C28.0578 35.592 27.7338 36.42 27.0858 37.068C26.4378 37.692 25.6218 38.004 24.6378 38.004Z"
		fill="black"
	/>
</svg>
