<svg width="50" height="50" viewBox="0 0 50 50" fill="none" xmlns="http://www.w3.org/2000/svg">
<path d="M11.4285 46.375C6.92858 41.875 4.99999 37.5357 5 32.3929C4.99998 29.9821 6.76786 25 11.4285 25C15.125 25 18.5 26.7679 18.5 32.3929C18.5 39.5929 13.8393 43.9643 11.4285 46.375Z" stroke="black" stroke-width="5"/>
<path d="M43.5 23L41.1618 23.8847L43.5 23ZM5.83642 4.00533C4.45867 4.09568 3.41501 5.2858 3.50536 6.66356C3.5957 8.04131 4.78583 9.08496 6.16358 8.99462L5.83642 4.00533ZM6.19636 8.99266C7.57476 8.91275 8.62739 7.73055 8.54748 6.35216C8.46757 4.97376 7.28537 3.92113 5.90698 4.00104L6.19636 8.99266ZM17.1051 4.4511C15.7344 4.28528 14.4888 5.26205 14.323 6.63277C14.1572 8.00349 15.1339 9.2491 16.5047 9.41491L17.1051 4.4511ZM16.6336 9.43065C18.004 9.59929 19.2516 8.62509 19.4203 7.25471C19.5889 5.88434 18.6147 4.63672 17.2443 4.46808L16.6336 9.43065ZM28.2406 6.88649C26.9321 6.44582 25.5141 7.14933 25.0734 8.45783C24.6327 9.76633 25.3363 11.1843 26.6448 11.625L28.2406 6.88649ZM26.7646 11.6656C28.0717 12.1104 29.4919 11.4114 29.9367 10.1043C30.3816 8.79725 29.6826 7.37703 28.3755 6.93218L26.7646 11.6656ZM38.6114 12.3369C37.5325 11.4753 35.9594 11.6515 35.0978 12.7304C34.2362 13.8093 34.4124 15.3824 35.4913 16.244L38.6114 12.3369ZM35.5852 16.3194C36.6592 17.1871 38.2333 17.0198 39.1009 15.9457C39.9686 14.8717 39.8013 13.2977 38.7273 12.43L35.5852 16.3194ZM45.8109 22.0434C45.3179 20.7538 43.8727 20.1079 42.583 20.6009C41.2933 21.094 40.6475 22.5391 41.1405 23.8288L45.8109 22.0434ZM41.1768 23.9252C41.6502 25.2222 43.0854 25.8899 44.3825 25.4165C45.6795 24.9431 46.3471 23.5079 45.8737 22.2108L41.1768 23.9252ZM41.9682 35.1043C42.8549 34.046 42.7158 32.4692 41.6575 31.5825C40.5992 30.6957 39.0224 30.8348 38.1356 31.8932L41.9682 35.1043ZM38.0497 31.9952C37.1579 33.0492 37.2893 34.6266 38.3433 35.5185C39.3973 36.4104 40.9748 36.2789 41.8666 35.2249L38.0497 31.9952ZM32.9108 43.3115C34.0238 42.4944 34.2637 40.9298 33.4466 39.8168C32.6295 38.7038 31.0648 38.4639 29.9519 39.281L32.9108 43.3115ZM29.8398 39.3631C28.7252 40.178 28.4823 41.7421 29.2972 42.8567C30.1121 43.9713 31.6762 44.2143 32.7908 43.3994L29.8398 39.3631ZM22.725 49.6805C23.9475 49.0386 24.4181 47.5272 23.7762 46.3048C23.1343 45.0824 21.6229 44.6118 20.4005 45.2537L22.725 49.6805ZM6 6.49997C6.16358 8.99462 6.16356 8.99462 6.16354 8.99462C6.16354 8.99462 6.16352 8.99462 6.16351 8.99462C6.16349 8.99462 6.16346 8.99462 6.16344 8.99463C6.16339 8.99463 6.16335 8.99463 6.1633 8.99464C6.16322 8.99464 6.16313 8.99465 6.16305 8.99465C6.1629 8.99466 6.16275 8.99467 6.16263 8.99468C6.16238 8.9947 6.1622 8.99471 6.16208 8.99471C6.16185 8.99473 6.16189 8.99473 6.1622 8.99471C6.16282 8.99467 6.1645 8.99456 6.16725 8.99439C6.17274 8.99405 6.18248 8.99346 6.19636 8.99266L5.90698 4.00104C5.88666 4.00222 5.87056 4.00319 5.85877 4.00392C5.85287 4.00428 5.84806 4.00458 5.84433 4.00482C5.84246 4.00494 5.84087 4.00504 5.83955 4.00513C5.83889 4.00517 5.8383 4.00521 5.83778 4.00524C5.83752 4.00526 5.83728 4.00528 5.83705 4.00529C5.83694 4.0053 5.83683 4.00531 5.83672 4.00531C5.83667 4.00532 5.83662 4.00532 5.83657 4.00532C5.83654 4.00532 5.83652 4.00533 5.83649 4.00533C5.83648 4.00533 5.83646 4.00533 5.83646 4.00533C5.83644 4.00533 5.83642 4.00533 6 6.49997ZM16.5047 9.41491C16.5476 9.4201 16.5906 9.42535 16.6336 9.43065L17.2443 4.46808C17.1979 4.46236 17.1515 4.4567 17.1051 4.4511L16.5047 9.41491ZM26.6448 11.625C26.6847 11.6384 26.7247 11.652 26.7646 11.6656L28.3755 6.93218C28.3305 6.91687 28.2856 6.90164 28.2406 6.88649L26.6448 11.625ZM35.4913 16.244C35.5227 16.269 35.554 16.2942 35.5852 16.3194L38.7273 12.43C38.6887 12.3989 38.6501 12.3678 38.6114 12.3369L35.4913 16.244ZM41.1405 23.8288C41.1476 23.8474 41.1547 23.8661 41.1618 23.8847L45.8382 22.1153C45.8291 22.0913 45.82 22.0674 45.8109 22.0434L41.1405 23.8288ZM41.1618 23.8847C41.1669 23.8982 41.1719 23.9117 41.1768 23.9252L45.8737 22.2108C45.8621 22.1789 45.8503 22.1471 45.8382 22.1153L41.1618 23.8847ZM38.1356 31.8932C38.1072 31.9271 38.0785 31.9612 38.0497 31.9952L41.8666 35.2249C41.9006 35.1848 41.9345 35.1446 41.9682 35.1043L38.1356 31.8932ZM29.9519 39.281C29.9145 39.3084 29.8772 39.3358 29.8398 39.3631L32.7908 43.3994C32.8308 43.3701 32.8708 43.3408 32.9108 43.3115L29.9519 39.281ZM20.4005 45.2537C20.3803 45.2643 20.3602 45.2749 20.34 45.2854L22.66 49.7146C22.6817 49.7032 22.7033 49.6919 22.725 49.6805L20.4005 45.2537Z" fill="black"/>
<circle cx="21.5" cy="47.5" r="2.5" fill="black"/>
</svg>
