<svg width="50" height="50" viewBox="0 0 50 50" fill="none" xmlns="http://www.w3.org/2000/svg">
<path fill-rule="evenodd" clip-rule="evenodd" d="M13.6951 44.3759C18.6895 43.6381 22.6381 39.6895 23.3759 34.6951L13.6951 44.3759ZM26.4289 17.5H18.9272L17.5058 22.9012C18.2506 23.3081 18.9454 23.795 19.5786 24.3503L10.3604 33.5685L9.58231 33.3638L11.3809 26.5291C8.08145 26.8408 5.5 29.619 5.5 33C5.5 34.522 6.02313 35.9219 6.89939 37.0295L3.35028 40.5786C1.57571 38.5549 0.5 35.9031 0.5 33C0.5 26.6487 5.64873 21.5 12 21.5C12.2347 21.5 12.4677 21.507 12.6989 21.5209L14.5823 14.3638L15.0728 12.5H17H31.4289L26.4289 17.5ZM28.0672 30.0038C27.6993 31.1022 27.5 32.2778 27.5 33.5C27.5 39.5751 32.4249 44.5 38.5 44.5C44.5751 44.5 49.5 39.5751 49.5 33.5C49.5 27.4445 44.6069 22.5318 38.5588 22.5002L37.9364 20.1347L28.0672 30.0038ZM38.4468 5.48209C38.0339 4.70581 37.4829 3.94734 36.7678 3.23223L33.2322 6.76777C34.0849 7.62046 34.4297 8.55046 34.4815 9.44743L38.4468 5.48209ZM36.5823 34.6362L35.0006 28.6256C33.4862 29.7148 32.5 31.4922 32.5 33.5C32.5 36.8137 35.1863 39.5 38.5 39.5C41.8137 39.5 44.5 36.8137 44.5 33.5C44.5 30.6752 42.5478 28.3063 39.919 27.6688L41.4177 33.3638L36.5823 34.6362ZM20 9.5H7V4.5H20V9.5Z" fill="black"/>
<path d="M47.5 3.5L4.5 46.5" stroke="black" stroke-width="5"/>
</svg>
