<svg width="50" height="50" viewBox="0 0 50 50" fill="none" xmlns="http://www.w3.org/2000/svg">
<path d="M25 41.5L23.4578 43.4677L24.9665 44.6502L26.5 43.5L25 41.5ZM15 8.50002L14.8959 6.00219L14.8746 6.00308L14.8532 6.00433L15 8.50002ZM25 13.5L23.0478 15.0617L26.8814 15.1463L25 13.5ZM26.5422 39.5324C23.5479 37.1855 19.0424 33.2138 15.3126 28.9841C13.447 26.8683 11.8272 24.746 10.6869 22.7769C9.51826 20.7589 9 19.1504 9 18H4C4 20.4496 5.0234 22.9745 6.36001 25.2825C7.72488 27.6394 9.57386 30.0359 11.5624 32.291C15.541 36.8029 20.2854 40.9812 23.4578 43.4677L26.5422 39.5324ZM9 18C9 15.1509 10.0795 13.5255 11.2741 12.5446C12.568 11.482 14.1615 11.0537 15.1468 10.9957L14.8532 6.00433C13.0052 6.11304 10.3487 6.83469 8.10094 8.68046C5.75383 10.6079 4 13.6492 4 18H9ZM15.1041 10.9979C16.8245 10.9262 18.0875 11.1466 19.2149 11.6898C20.366 12.2443 21.5891 13.2383 23.0478 15.0617L26.9522 11.9383C25.2109 9.76166 23.434 8.17236 21.3851 7.18526C19.3125 6.18676 17.1755 5.9072 14.8959 6.00219L15.1041 10.9979ZM26.8814 15.1463C28.4672 13.334 29.822 12.3356 31.0476 11.7699C32.2584 11.2111 33.5035 11 35 11V6C32.9965 6 30.9916 6.28889 28.9524 7.2301C26.928 8.16443 25.0328 9.66598 23.1186 11.8537L26.8814 15.1463ZM35 11C37.015 11 41 13.116 41 18H46C46 9.88395 39.281 6 35 6V11ZM41 18C41 21.4726 38.4951 25.6007 34.6651 29.7395C30.9493 33.755 26.4731 37.2702 23.5 39.5L26.5 43.5C29.5269 41.2298 34.3007 37.495 38.3349 33.1355C42.2549 28.8993 46 23.5274 46 18H41Z" fill="black"/>
</svg>
