<svg width="50" height="50" viewBox="0 0 50 50" fill="none" xmlns="http://www.w3.org/2000/svg">
<path d="M24.3571 45.5C15.3572 36.5 11.5 27.8214 11.5 17.5357C11.5 12.7143 15.0357 2.75 24.3571 2.75C31.75 2.75 38.5 6.28572 38.5 17.5357C38.5 31.9357 29.1786 40.6785 24.3571 45.5Z" fill="#25C9FF" stroke="#25C9FF" stroke-width="5"/>
<path fill-rule="evenodd" clip-rule="evenodd" d="M12.9761 17.9953V41.3208H9.86604C9.24403 41.2171 8 40.6988 8 39.4547V4.31101H11.4211C11.7321 4.31101 12.4163 4.49761 12.6651 5.24403C12.9139 5.99044 19.8182 19.8613 23.2393 26.7035V4H26.3494C27.0751 4.10367 28.5264 4.62201 28.5264 5.86604V40.0768C28.5264 40.4914 28.3398 41.3208 27.5934 41.3208H25.1054C24.587 41.2171 23.5503 40.761 23.5503 39.7657C23.0527 39.0193 16.2935 24.9411 12.9761 17.9953ZM31.853 4V8.35409H40.5612V12.3972C38.2805 18.099 33.7812 31.804 34.03 41.0098H38.6951C39.0061 36.863 40.7478 25.4594 45.2263 13.0192V4H31.853Z" fill="black"/>
</svg>
