<?xml version="1.0" encoding="UTF-8" standalone="no"?>
<!-- Generator: Adobe Illustrator 17.0.0, SVG Export Plug-In . SVG Version: 6.00 Build 0)  -->

<svg
   version="1.1"
   id="Layer_1"
   x="0px"
   y="0px"
   width="398.67493"
   height="335.517"
   viewBox="0 0 398.67493 335.517"
   enable-background="new 0 0 960 960"
   xml:space="preserve"
   xmlns="http://www.w3.org/2000/svg"
   xmlns:svg="http://www.w3.org/2000/svg"><defs
   id="defs55" />

<g
   id="g30"
   transform="translate(-460.87657,-447.42)">
	<path
   fill="#a1daf8"
   d="m 660.214,534.738 v 142.788 h -26.658 c -2.51,0 -4.544,2.034 -4.544,4.544 v 96.322 c 0,2.51 -2.034,4.544 -4.544,4.544 h -97.763 c -2.51,0 -4.544,-2.034 -4.544,-4.544 V 640.949 Z"
   id="path22" />
	<path
   fill="#5bc5f2"
   d="m 798.244,640.926 v 137.467 c 0,2.51 -2.034,4.544 -4.544,4.544 h -97.832 c -2.509,0 -4.544,-2.034 -4.544,-4.544 v -96.322 c 0,-2.51 -2.034,-4.544 -4.543,-4.544 H 660.214 V 534.738 Z"
   id="path24" />
	<path
   fill="#009fe3"
   d="m 858.609,605.774 -36.663,47.652 c -1.53,1.99 -4.383,2.361 -6.372,0.83 L 798.245,640.923 660.214,534.736 V 447.42 l 77.554,59.661 c 2.987,2.297 7.314,0.168 7.314,-3.602 v -13.931 c 0,-2.509 2.035,-4.544 4.544,-4.544 h 49.656 c 2.51,0 4.544,2.035 4.544,4.544 v 66.123 c 0,1.411 0.655,2.742 1.774,3.602 l 52.178,40.129 c 1.989,1.53 2.361,4.383 0.831,6.372"
   id="path26" />
	<path
   fill="#00b1eb"
   d="m 660.215,447.421 v 87.315 l -138.053,106.21 -17.307,13.312 c -1.989,1.53 -4.841,1.158 -6.371,-0.83 l -36.665,-47.653 c -1.53,-1.99 -1.158,-4.842 0.832,-6.373 z"
   id="path28" />
</g>

</svg>
