<?xml version="1.0" encoding="UTF-8" standalone="no"?>
<!-- Generator: Adobe Illustrator 17.0.0, SVG Export Plug-In . SVG Version: 6.00 Build 0)  -->

<svg
   version="1.1"
   id="Layer_1"
   x="0px"
   y="0px"
   width="286.60849"
   height="335.51599"
   viewBox="0 0 286.60849 335.51599"
   enable-background="new 0 0 960 960"
   xml:space="preserve"
   xmlns="http://www.w3.org/2000/svg"
   xmlns:svg="http://www.w3.org/2000/svg"><defs
   id="defs55" />
<g
   id="g20"
   transform="translate(-91.619214,-447.421)">
	<polygon
   points="117.07,768.081 150.312,768.081 150.312,781.897 100.344,781.897 100.344,705.024 117.07,705.024 "
   id="polygon2" />
	<path
   d="m 164.077,779.3 c -4.607,-2.423 -8.191,-5.852 -10.752,-10.285 -2.563,-4.43 -3.844,-9.521 -3.844,-15.27 0,-5.817 1.263,-10.942 3.791,-15.375 2.528,-4.431 6.112,-7.859 10.753,-10.283 4.638,-2.424 9.972,-3.637 15.997,-3.637 5.955,0 11.236,1.213 15.843,3.637 4.605,2.424 8.188,5.868 10.751,10.336 2.561,4.466 3.844,9.575 3.844,15.322 0,5.749 -1.283,10.84 -3.844,15.27 -2.563,4.433 -6.146,7.862 -10.751,10.285 -4.607,2.425 -9.888,3.636 -15.843,3.636 -6.025,0 -11.341,-1.211 -15.945,-3.636 m 25.918,-14.44 c 2.561,-2.839 3.844,-6.544 3.844,-11.115 0,-4.64 -1.283,-8.379 -3.844,-11.22 -2.563,-2.838 -5.887,-4.258 -9.973,-4.258 -4.155,0 -7.515,1.42 -10.076,4.258 -2.563,2.841 -3.844,6.58 -3.844,11.22 0,4.571 1.281,8.276 3.844,11.115 2.561,2.841 5.921,4.26 10.076,4.26 4.086,0 7.41,-1.419 9.973,-4.26"
   id="path4" />
	<path
   d="m 245.779,738.268 c -4.295,0 -7.757,1.42 -10.388,4.258 -2.633,2.841 -3.948,6.58 -3.948,11.22 0,4.571 1.315,8.276 3.948,11.115 2.631,2.841 6.093,4.26 10.388,4.26 5.194,0 9.176,-1.593 11.946,-4.78 l 9.142,10.7 c -2.633,2.632 -5.801,4.607 -9.505,5.921 -3.706,1.316 -7.775,1.975 -12.207,1.975 -6.025,0 -11.323,-1.211 -15.894,-3.636 -4.57,-2.424 -8.12,-5.852 -10.648,-10.285 -2.528,-4.431 -3.791,-9.557 -3.791,-15.375 0,-5.747 1.281,-10.837 3.843,-15.27 2.562,-4.431 6.146,-7.859 10.753,-10.284 4.604,-2.423 9.954,-3.636 16.049,-3.636 3.601,0 7.081,0.572 10.44,1.713 3.359,1.144 6.389,2.79 9.09,4.935 l -9.037,10.907 c -2.702,-2.492 -6.096,-3.738 -10.181,-3.738"
   id="path6" />
	<path
   d="m 308.002,727.203 c 3.74,1.836 6.649,4.415 8.727,7.739 2.077,3.325 3.116,7.168 3.116,11.531 v 35.424 h -11.53 l -4.052,-7.376 c -1.802,2.494 -4.07,4.52 -6.804,6.077 -2.737,1.559 -5.905,2.338 -9.506,2.338 -5.957,0 -10.752,-1.644 -14.388,-4.934 -3.635,-3.289 -5.453,-7.601 -5.453,-12.934 0,-3.532 1.003,-6.683 3.013,-9.453 2.007,-2.77 4.846,-4.916 8.518,-6.44 3.67,-1.523 7.895,-2.287 12.673,-2.287 3.67,0 7.41,0.382 11.219,1.143 v -1.558 c -0.277,-2.976 -1.49,-5.28 -3.636,-6.908 -2.147,-1.627 -5.089,-2.441 -8.83,-2.441 -4.848,0 -9.037,1.35 -12.569,4.051 l -6.856,-9.557 c 3.254,-2.424 6.769,-4.224 10.544,-5.402 3.773,-1.177 8.119,-1.766 13.037,-1.766 4.779,0 9.038,0.919 12.777,2.753 m -7.583,40.826 c 2.216,-2.319 3.324,-5.35 3.324,-9.09 -3.601,-0.691 -6.718,-1.039 -9.349,-1.039 -2.84,0 -5.142,0.624 -6.908,1.87 -1.766,1.246 -2.65,2.909 -2.65,4.987 0,2.147 0.676,3.809 2.027,4.986 1.35,1.178 3.236,1.766 5.661,1.766 3.047,0 5.678,-1.159 7.895,-3.48"
   id="path8" />
	<polygon
   points="325.143,705.024 378.227,705.024 352.671,781.897 335.115,781.897 356.827,718.737 325.143,718.737 "
   id="polygon10" />
	<path
   fill="#a1daf8"
   d="m 234.923,510.193 v 102.65 h -19.165 c -1.803,0 -3.266,1.463 -3.266,3.267 v 69.246 c 0,1.804 -1.463,3.267 -3.266,3.267 h -70.282 c -1.805,0 -3.267,-1.463 -3.267,-3.267 v -98.809 z"
   id="path12" />
	<path
   fill="#5bc5f2"
   d="m 334.153,586.531 v 98.825 c 0,1.804 -1.462,3.267 -3.267,3.267 h -70.331 c -1.804,0 -3.266,-1.463 -3.266,-3.267 V 616.11 c 0,-1.804 -1.463,-3.267 -3.267,-3.267 h -19.099 v -102.65 z"
   id="path14" />
	<path
   fill="#009fe3"
   d="m 377.55,561.262 -26.357,34.257 c -1.1,1.43 -3.151,1.697 -4.581,0.597 l -12.458,-9.585 -99.23,-76.339 v -62.771 l 55.753,42.89 c 2.148,1.652 5.258,0.121 5.258,-2.59 v -10.014 c 0,-1.804 1.463,-3.267 3.267,-3.267 H 334.9 c 1.804,0 3.266,1.463 3.266,3.267 v 47.535 c 0,1.014 0.471,1.971 1.276,2.589 l 37.51,28.85 c 1.431,1.1 1.698,3.15 0.598,4.581"
   id="path16" />
	<path
   fill="#00b1eb"
   d="m 234.923,447.421 v 62.771 l -99.246,76.355 -12.442,9.569 c -1.43,1.1 -3.48,0.832 -4.581,-0.597 L 92.297,561.261 c -1.1,-1.43 -0.833,-3.481 0.597,-4.581 z"
   id="path18" />
</g>


</svg>
