<?xml version="1.0" standalone="no"?>
<!DOCTYPE svg PUBLIC "-//W3C//DTD SVG 20010904//EN"
 "http://www.w3.org/TR/2001/REC-SVG-20010904/DTD/svg10.dtd">
<svg version="1.0" xmlns="http://www.w3.org/2000/svg"
 width="798.000000pt" height="798.000000pt" viewBox="0 0 798.000000 798.000000"
 preserveAspectRatio="xMidYMid meet">
<metadata>
Created by potrace 1.14, written by Peter Selinger 2001-2017
</metadata>
<g transform="translate(0.000000,798.000000) scale(0.100000,-0.100000)"
fill="#000000" stroke="none">
<path d="M3974 7327 c-6 -7 -43 -37 -83 -67 -40 -30 -89 -68 -110 -85 -21 -16
-80 -61 -131 -100 -51 -38 -97 -75 -104 -80 -6 -6 -78 -62 -161 -125 -82 -63
-152 -117 -155 -120 -3 -3 -32 -25 -65 -50 -33 -24 -66 -50 -73 -57 -7 -7 -16
-13 -20 -13 -4 0 -20 -13 -37 -28 -16 -15 -55 -45 -85 -67 -30 -22 -57 -42
-60 -45 -3 -3 -23 -19 -45 -36 -22 -16 -45 -33 -52 -39 -26 -21 -39 -32 -78
-60 -22 -17 -45 -34 -51 -40 -7 -5 -43 -33 -80 -62 -94 -72 -405 -311 -424
-326 -9 -6 -33 -25 -55 -42 -43 -32 -48 -36 -83 -64 -12 -10 -38 -29 -57 -42
-19 -13 -35 -27 -35 -31 0 -5 -5 -8 -10 -8 -6 0 -18 -8 -28 -17 -29 -27 -62
-53 -68 -53 -2 0 -33 -23 -67 -51 -80 -65 -82 -67 -147 -114 -30 -21 -57 -42
-60 -45 -3 -4 -32 -26 -65 -51 -33 -24 -64 -50 -68 -56 -4 -7 -15 -13 -22 -13
-8 0 -15 -3 -15 -7 0 -5 -34 -33 -75 -63 -41 -30 -75 -58 -75 -62 0 -5 -6 -8
-14 -8 -8 0 -16 -4 -18 -8 -1 -5 -30 -28 -63 -53 -33 -24 -62 -46 -65 -50 -3
-3 -43 -34 -90 -69 -47 -36 -87 -67 -90 -70 -3 -3 -43 -34 -90 -70 -117 -88
-164 -124 -170 -131 -3 -3 -23 -18 -45 -35 -34 -25 -173 -131 -255 -195 -73
-56 -116 -89 -182 -139 -110 -83 -138 -113 -138 -148 0 -17 5 -34 10 -37 6 -4
8 -11 5 -16 -4 -5 -3 -9 2 -9 4 0 19 -17 33 -37 14 -20 30 -41 36 -47 5 -6 37
-47 70 -91 32 -43 65 -86 72 -95 51 -61 112 -140 112 -145 0 -3 8 -13 18 -23
9 -10 24 -29 32 -42 8 -12 20 -28 25 -34 9 -10 66 -82 87 -111 4 -5 18 -23 31
-40 13 -16 61 -79 108 -140 46 -60 89 -116 96 -123 7 -7 13 -17 13 -21 0 -11
42 -32 72 -35 25 -3 119 59 235 155 17 13 40 31 53 39 12 8 30 22 39 31 9 8
30 25 46 36 l30 21 0 -1392 0 -1391 25 -25 25 -25 1013 -3 1013 -2 30 29 c28
28 29 33 29 123 0 51 1 495 1 986 0 548 3 902 9 918 20 51 31 52 620 52 574 0
586 -1 606 -45 4 -10 9 -457 9 -993 1 -536 5 -989 9 -1006 4 -18 18 -37 35
-47 27 -16 107 -17 1025 -17 708 0 1002 3 1019 11 54 25 52 -46 52 1444 l-1
1383 31 -21 c16 -12 32 -24 35 -27 3 -3 23 -19 45 -36 22 -16 65 -48 95 -72
30 -23 60 -46 65 -50 6 -4 28 -22 51 -39 22 -18 52 -34 66 -37 27 -4 78 17 90
37 6 11 121 161 151 197 7 9 33 42 57 75 25 33 47 62 50 65 3 3 34 43 70 90
35 47 68 87 72 88 4 2 8 10 8 18 0 8 3 14 8 14 4 0 23 23 42 50 19 27 38 50
43 50 4 0 7 6 7 14 0 8 4 16 8 18 5 2 59 69 120 150 74 98 112 156 112 173 0
37 -24 68 -88 116 -31 24 -59 45 -62 49 -3 3 -21 17 -40 30 -19 13 -37 27 -40
30 -3 3 -21 17 -40 30 -19 13 -37 27 -40 30 -7 8 -63 52 -96 75 -15 11 -63 48
-105 83 -43 34 -83 62 -89 62 -5 0 -10 4 -10 8 0 5 -21 24 -47 43 -27 18 -55
39 -63 46 -8 6 -53 41 -100 77 -47 36 -90 70 -97 75 -6 6 -46 37 -90 69 -43
33 -85 67 -93 77 -12 15 -15 116 -15 704 0 377 -4 696 -9 709 -17 50 -24 51
-577 50 -551 0 -560 -1 -578 -50 -4 -12 -8 -89 -9 -172 -2 -182 -5 -202 -42
-221 -57 -29 -73 -22 -248 113 -355 272 -387 297 -402 309 -8 6 -127 98 -265
204 -137 105 -263 202 -280 216 -16 13 -35 27 -40 31 -38 27 -144 111 -165
129 -14 13 -30 23 -37 23 -6 0 -13 4 -15 8 -1 5 -43 39 -93 77 -49 38 -92 71
-95 74 -9 11 -25 9 -36 -2z"/>
</g>
</svg>
